<?xml version="1.0" encoding="UTF-8" standalone="no"?>
<svg width="400px" height="400px" viewBox="0 0 400 400" version="1.1" xmlns="http://www.w3.org/2000/svg" xmlns:xlink="http://www.w3.org/1999/xlink">
    <!-- Generator: Sketch 42 (36781) - http://www.bohemiancoding.com/sketch -->
    <title>Artboard 2</title>
    <desc>Created with Sketch.</desc>
    <defs></defs>
    <g id="wireframes" stroke="none" stroke-width="1" fill="none" fill-rule="evenodd">
        <g id="Artboard-2">
            <g id="Group">
                <circle id="Oval-4" fill="#E4E4E4" cx="200" cy="200" r="200"></circle>
                <g id="Contacts_000000" transform="translate(114.285714, 105.714286)" fill-rule="nonzero" fill="#000000">
                    <path d="M85.7142857,0 C52.6787314,0 25.7142857,26.9644397 25.7142857,60 C25.7142857,80.5119771 36.1747114,98.7240429 51.9642857,109.553571 C21.3047486,122.596483 0,153.084694 0,188.571429 L17.1428571,188.571429 C17.1428571,150.285711 47.4285686,120 85.7142857,120 C124.000003,120 154.285714,150.285711 154.285714,188.571429 L171.428571,188.571429 C171.428571,153.084694 150.123823,122.596483 119.464286,109.553571 C135.25386,98.7240429 145.714286,80.5119771 145.714286,60 C145.714286,26.9644397 118.74984,0 85.7142857,0 Z M85.7142857,17.1428571 C109.485154,17.1428571 128.571429,36.2291289 128.571429,60 C128.571429,83.7708686 109.485154,102.857143 85.7142857,102.857143 C61.9434171,102.857143 42.8571429,83.7708686 42.8571429,60 C42.8571429,36.2291289 61.9434171,17.1428571 85.7142857,17.1428571 Z" id="Shape"></path>
                </g>
            </g>
        </g>
    </g>
</svg>